<svg id="Layer_1" data-name="Layer 1" xmlns="http://www.w3.org/2000/svg" viewBox="0 0 124 154.91"><defs><style>.cls-1{fill:#6f6e6e;}.cls-2{fill:none;stroke:#fff;stroke-miterlimit:10;stroke-width:10px;}</style></defs><title>shopping-bag</title><g id="shopping-bag"><path id="Path_3" data-name="Path 3" class="cls-1" d="M124,133.92L115.1,34a4.27,4.27,0,0,0-4.24-3.9H92.6a30.61,30.61,0,0,0-61.21,0H13.15A4.25,4.25,0,0,0,8.9,34L0,133.92c0,0.13,0,.25,0,0.38,0,11.37,10.42,20.62,23.25,20.62h77.49c12.83,0,23.25-9.25,23.25-20.62A1.54,1.54,0,0,0,124,133.92ZM62,8.55A22.07,22.07,0,0,1,84.05,30.13H40A22.07,22.07,0,0,1,62,8.55Zm38.75,137.81H23.25c-8,0-14.57-5.32-14.7-11.88L17,38.71H31.37v13a4.28,4.28,0,1,0,8.55,0v-13H84.05v13a4.28,4.28,0,1,0,8.55,0v-13h14.32l8.52,95.77C115.32,141,108.76,146.37,100.75,146.37Z" transform="translate(0 -0.01)"/></g><line class="cls-2" x1="20" y1="34.63" x2="30.5" y2="34.63"/><line class="cls-2" x1="70.25" y1="34.63" x2="84.05" y2="34.63"/></svg>